<?xml version="1.0" standalone="no"?><!DOCTYPE svg PUBLIC "-//W3C//DTD SVG 1.1//EN" "http://www.w3.org/Graphics/SVG/1.1/DTD/svg11.dtd"><svg fill="#909399"  class="icon" width="200px" height="200.00px" viewBox="0 0 1024 1024" version="1.1" xmlns="http://www.w3.org/2000/svg"><path d="M180.224 610.304c0 76.8-56.32 142.336-132.608 153.088v134.144h928.256v-134.144c-76.288-10.752-133.12-76.288-133.12-153.088s56.32-142.336 133.12-153.088V323.072H47.616v134.144c76.288 10.752 132.608 76.288 132.608 153.088zM3.584 477.696V300.544c0-6.144 2.048-11.264 6.656-15.872 4.096-4.096 9.728-6.656 15.872-6.656H998.4c6.144 0 11.264 2.048 15.872 6.656 4.096 4.096 6.656 9.728 6.656 15.872v176.64c0 6.144-2.048 11.264-6.656 15.872-4.096 4.096-9.728 6.656-15.872 6.656-60.928 0-110.592 49.664-110.592 110.592s49.664 110.592 110.592 110.592c6.144 0 11.264 2.048 15.872 6.656 4.096 4.096 6.656 9.728 6.656 15.872v176.64c0 6.144-2.048 11.264-6.656 15.872-4.096 4.096-9.728 6.656-15.872 6.656H25.6c-6.144 0-11.264-2.048-15.872-6.656-4.096-4.096-6.656-9.728-6.656-15.872v-176.64c0-6.144 2.048-11.264 6.656-15.872 4.096-4.096 9.728-6.656 15.872-6.656 60.928 0 110.592-49.664 110.592-110.592 0-60.928-49.664-110.592-110.592-110.592-6.144 0-11.264-2.048-15.872-6.656-4.096-4.096-6.144-9.728-6.144-15.36z m377.856-223.744c-11.776 3.072-24.064-4.096-27.136-15.872-3.072-11.776 4.096-24.064 15.872-27.136l467.968-124.928c11.776-3.072 24.064 4.096 27.136 15.872l26.112 98.304c3.072 11.776-4.096 24.064-15.872 27.136-11.776 3.072-24.064-4.096-27.136-15.872l-20.48-76.8-446.464 119.296zM666.112 389.12c0-12.288 9.728-22.016 22.016-22.016s22.016 9.728 22.016 22.016v88.576c0 12.288-9.728 22.016-22.016 22.016s-22.016-9.728-22.016-22.016V389.12z m0 176.64c0-12.288 9.728-22.016 22.016-22.016s22.016 9.728 22.016 22.016v88.576c0 12.288-9.728 22.016-22.016 22.016s-22.016-9.728-22.016-22.016v-88.576z m0 176.64c0-12.288 9.728-22.016 22.016-22.016s22.016 9.728 22.016 22.016v88.576c0 12.288-9.728 22.016-22.016 22.016s-22.016-9.728-22.016-22.016V742.4z"  /></svg>