<?xml version="1.0" standalone="no"?><!DOCTYPE svg PUBLIC "-//W3C//DTD SVG 1.1//EN" "http://www.w3.org/Graphics/SVG/1.1/DTD/svg11.dtd"><svg class="icon" fill="#909399"  width="200px" height="200.00px" viewBox="0 0 1024 1024" version="1.1" xmlns="http://www.w3.org/2000/svg"><path d="M913.903509 128.089283l-805.853631 0c-38.792515 0-70.352301 31.559786-70.352301 70.352301l0 626.775047c0 38.792515 31.559786 70.352301 70.352301 70.352301l805.853631 0c38.792515 0 70.352301-31.559786 70.352301-70.352301l0-626.775047C984.255811 159.64907 952.696024 128.089283 913.903509 128.089283zM108.049878 179.254593l805.853631 0c10.579963 0 19.186991 8.607028 19.186991 19.186991l0 321.058227-236.495272-236.496296c-27.431769-27.429723-72.062246-27.429723-99.494015 0L445.901583 434.20417l-53.064566-52.707432c-27.430746-27.430746-72.063269-27.430746-99.494015 0L88.862887 585.977875l0-387.53629C88.862887 187.861622 97.469915 179.254593 108.049878 179.254593zM913.903509 844.403622l-805.853631 0c-10.579963 0-19.186991-8.607028-19.186991-19.186991L88.862887 658.33688l240.660128-240.661152c7.480368-7.482415 19.653619-7.481392 27.195386 0.061398l322.30666 320.137251c4.990664 4.956895 11.510148 7.432273 18.027585 7.432273 6.576789 0 13.151531-2.520403 18.151405-7.554046 9.956769-10.024308 9.902534-26.222221-0.121773-36.178991L482.20337 470.261387l151.077857-151.077857c7.480368-7.480368 19.652596-7.482415 27.13501 0l272.675286 272.675286 0 233.357815C933.090501 835.796594 924.483472 844.403622 913.903509 844.403622z" /></svg>