<svg height="200" fill="#909399"  viewBox="0 0 1024 1024" width="200" xmlns="http://www.w3.org/2000/svg"><path d="m893.686 171.345h-763.374c-55.326 0-100.6 45.272-100.6 100.601v526.064c0 55.328 45.272 100.603 100.6 100.603h763.374c55.328 0 100.603-45.274 100.603-100.603v-526.064c-.001-55.329-45.275-100.601-100.603-100.601m37.723 626.663c0 9.968-3.954 19.404-11.13 26.587-7.185 7.185-16.629 11.137-26.594 11.137h-763.373c-9.965 0-19.41-3.952-26.592-11.137-7.177-7.183-11.13-16.619-11.13-26.587v-526.062c0-9.967 3.954-19.412 11.13-26.594 7.182-7.175 16.626-11.131 26.592-11.131h763.374c9.965 0 19.412 3.956 26.594 11.131 7.178 7.182 11.133 16.628 11.133 26.594v526.062z"/><path d="m815.983 326.708-295.53 221.65-295.529-221.65c-13.883-10.416-33.594-7.6-44.01 6.288-10.417 13.893-7.603 33.597 6.287 44.013l314.394 235.797c.007.008.02.014.025.019.69.516 1.399 1.002 2.126 1.457.016.013.04.026.066.037a30.93 30.93 0 0 0 1.949 1.124c.15.076.294.152.444.227.666.341 1.338.666 2.028.954.126.056.254.096.378.148a35.8 35.8 0 0 0 1.682.624c.293.104.587.192.886.288.415.127.835.245 1.255.354.299.079.593.164.895.234.637.144 1.277.271 1.927.387.294.045.582.082.876.119.454.065.904.118 1.355.161.275.023.551.056.828.071.666.045 1.324.071 1.99.079.043 0 .085.006.127.006h.055c.04 0 .085-.006.127-.006a35.323 35.323 0 0 0 1.985-.079c.275-.016.553-.048.828-.071.457-.043.906-.096 1.361-.161.293-.037.582-.074.875-.119.648-.11 1.291-.24 1.934-.387.293-.07.59-.155.883-.234.42-.109.846-.228 1.261-.359.294-.091.587-.18.88-.283.572-.19 1.135-.399 1.693-.629.118-.048.245-.088.367-.144.689-.288 1.361-.61 2.033-.954.15-.071.293-.147.443-.227.654-.35 1.301-.715 1.938-1.111l.085-.056a31.568 31.568 0 0 0 2.104-1.443.105.105 0 0 1 .037-.024l314.396-235.797c13.889-10.417 16.702-30.123 6.279-44.012-10.419-13.886-30.121-16.707-44.013-6.291"/></svg>