<?xml version="1.0" standalone="no"?><!DOCTYPE svg PUBLIC "-//W3C//DTD SVG 1.1//EN" "http://www.w3.org/Graphics/SVG/1.1/DTD/svg11.dtd"><svg class="icon" fill="#909399" width="200px" height="200.00px" viewBox="0 0 1024 1024" version="1.1" xmlns="http://www.w3.org/2000/svg"><path d="M903.9 916.4H123.4c-61.2 0-111.1-49.8-111.1-111.1V219.7c0-61.2 49.8-111.1 111.1-111.1h780.5c61.2 0 111.1 49.8 111.1 111.1v585.6c0 61.3-49.8 111.1-111.1 111.1zM123.4 169.2c-27.8 0-50.5 22.6-50.5 50.5v585.6c0 27.8 22.6 50.5 50.5 50.5h780.5c27.8 0 50.5-22.6 50.5-50.5V219.7c0-27.8-22.6-50.5-50.5-50.5H123.4z"  /><path d="M327.1 591.6H213c-39 0-70.7-31.7-70.7-70.7V341.8c0-39 31.7-70.7 70.7-70.7h114.1c39 0 70.7 31.7 70.7 70.7v179.1c0 39-31.7 70.7-70.7 70.7zM213 331.7c-5.5 0-10.1 4.6-10.1 10.1v179.1c0 5.5 4.6 10.1 10.1 10.1h114.1c5.5 0 10.1-4.6 10.1-10.1V341.8c0-5.5-4.6-10.1-10.1-10.1H213z"  /><path d="M172.6 723.7h649.7"  /><path d="M822.3 754H172.6c-16.7 0-30.3-13.6-30.3-30.3s13.6-30.3 30.3-30.3h649.7c16.7 0 30.3 13.6 30.3 30.3S839 754 822.3 754z"  /><path d="M562.4 528.8h259.9"  /><path d="M822.3 559.1H562.4c-16.7 0-30.3-13.6-30.3-30.3s13.6-30.3 30.3-30.3h259.9c16.7 0 30.3 13.6 30.3 30.3s-13.6 30.3-30.3 30.3z"  /><path d="M562.4 333.9h259.9"  /><path d="M822.3 364.2H562.4c-16.7 0-30.3-13.6-30.3-30.3s13.6-30.3 30.3-30.3h259.9c16.7 0 30.3 13.6 30.3 30.3s-13.6 30.3-30.3 30.3z"  /></svg>
