<?xml version="1.0" standalone="no"?><!DOCTYPE svg PUBLIC "-//W3C//DTD SVG 1.1//EN" "http://www.w3.org/Graphics/SVG/1.1/DTD/svg11.dtd"><svg class="icon" fill="#909399"  width="200px" height="200.00px" viewBox="0 0 1024 1024" version="1.1" xmlns="http://www.w3.org/2000/svg"><path d="M762.8 1024l-5.6-0.1c-125.5-6.4-290.5-119.2-442.2-301.8l-54-64.9C106.7 471.6 29.5 294.9 49.1 172.3 64.9 74 199.1 0 278.4 0c51.1 0 71.1 29.2 77.8 43.7 37.2 66.2 88.6 189 88.9 241l0.1 9-3.3 8.5c-12.4 32.6-39.7 48-57.8 58.2-16.4 9.2-18.8 11.3-19.5 15.6 2 6.6 15.2 40.1 94.8 137.8l41.1 49.3c80.8 94.9 110.8 113.2 116.4 116 5.1 0.5 7.7-1 21-15.5 13.9-15.2 34.9-38.1 70-43.2l8.7-1.2 8.4 1.8c51.6 10.8 164.6 85.7 223.9 135.2 21.5 15.3 38.4 48.3 23.1 96.5-22.3 69.7-114.9 171.3-209.2 171.3zM278.4 63.6c-54.1 0-156.8 58.7-166.4 118.7-16.3 101.4 59.6 267.8 197.9 434.2l54 64.9C502.4 848.1 654 954.9 759.4 960.3h3.6c59.6-0.2 132.3-77 148.3-127.2 5.4-16.9 2.3-24 0.6-25.3l-2.8-2.1c-61.2-51.3-159.1-112.5-194.6-122-10.6 2.4-18.4 10.4-29.7 22.8-15.9 17.3-37.7 41.1-78.9 35.3-11.5-1.6-41.9-5.9-154.1-137.8l-41.5-49.8C298.1 416.6 300 387 300.8 374.3c2.7-41.7 30-57 51.9-69.3 14.5-8.1 24-14 28.6-23.1-2.6-36-43.8-142-81.3-208.2l-1.6-3.1c-2.6-6.3-14.9-7-20-7z m339.4 615.9zM364.2 374.7z" /></svg>