<?xml version="1.0" standalone="no"?><!DOCTYPE svg PUBLIC "-//W3C//DTD SVG 1.1//EN" "http://www.w3.org/Graphics/SVG/1.1/DTD/svg11.dtd"><svg class="icon" fill="#909399"  width="200px" height="200.00px" viewBox="0 0 1024 1024" version="1.1" xmlns="http://www.w3.org/2000/svg"><path d="M691.198707 135.809293c121.069899 0 219.59499 91.010586 219.59499 203.733333 0 35.069414-10.016323 69.302303-28.387556 100.196849-27.552323 45.08703-71.801535 78.491152-125.240888 94.354101-14.197657 4.172283-25.051798 5.845333-35.069415 5.845333-23.378747 0-41.74998-18.368646-41.749979-41.748687s18.371232-41.751273 41.749979-41.751273c1.664 0 5.008808 0 9.182384-1.664 35.905939-10.025374 64.293495-30.895838 80.155152-58.455919 10.860606-17.533414 15.869414-36.732121 15.869414-56.775111 0-65.966545-60.956444-120.233374-135.267556-120.233374-25.885737 0-50.937535 6.681859-73.48105 19.198708-39.24299 22.552566-62.621737 60.121212-62.621738 101.035959v349.862788c0 70.963717-39.241697 136.092444-104.370424 172.833616-35.068121 20.04299-74.317576 30.060606-114.395798 30.060606C216.096323 892.302222 117.569939 801.286465 117.569939 688.571475c0-35.070707 10.017616-69.308768 28.388849-100.199435 27.549737-45.094788 71.808-78.491152 125.248646-94.352808 15.026424-4.173576 25.04404-5.84404 35.069414-5.84404 23.38004 0 41.742222 18.369939 41.742223 41.748687s-18.362182 41.74998-41.742223 41.74998c-1.671758 0-5.017859 0-9.190141 1.664-35.904646 10.854141-64.293495 31.734949-80.153859 58.448161-10.854141 17.536-15.862949 36.743758-15.862949 56.785455 0 65.956202 60.947394 120.230788 136.096323 120.230788 25.885737 0 50.937535-6.67798 73.481051-19.205172 39.241697-22.542222 62.621737-60.112162 62.621737-101.025616V339.542626c0-70.975354 39.241697-136.104081 104.370424-172.834909 34.231596-20.880808 73.481051-30.898424 113.559273-30.898424zM34.909091 512.466747"  /></svg>